<svg xmlns="http://www.w3.org/2000/svg" style="display: none;">
  
  <symbol id="icon-room-service" viewBox="0 0 24 24">
    <path d="M2 9.2C2 14.2 6.2 16.8 9 19C10 19.8 11 20.6 12 20.6C13 20.6 14 19.8 15 19C17.8 16.8 22 14.1 22 9.2C22 4.3 16.6 1 12 6C7.4 1 2 4.3 2 9.2Z"/>
  </symbol>

  <symbol id="icon-coffee" viewBox="0 0 24 24">
    <path d="M4,19h16v-2h-16V19z M20,3H4v10c0,2.21,1.79,4,4,4h6c2.21,0,4-1.79,4-4v-3h2c1.1,0,2-0.9,2-2V5C22,3.9,21.1,3,20,3z M20,8h-2V5h2V8z"/>
  </symbol>

  <symbol id="icon-wifi" viewBox="0 0 24 24">
    <path d="M1,9l2,2c4.97-4.97,13.03-4.97,18,0l2-2C16.93,2.93,7.08,2.93,1,9z M9,17l3,3l3-3c-1.65-1.66-4.34-1.66-6,0z M5,13l2,2c2.76-2.76,7.24-2.76,10,0l2-2C15.14,9.14,8.87,9.14,5,13z"/>
  </symbol>

  <symbol id="icon-tv" viewBox="0 0 24 24">
    <path d="M21,3H3C1.9,3,1,3.9,1,5v12c0,1.1,0.9,2,2,2h5v2h8v-2h5c1.1,0,1.99-0.9,1.99-2L23,5C23,3.9,22.1,3,21,3z M21,17H3V5h18V17z"/>
  </symbol>

  <symbol id="icon-pool" viewBox="0 0 24 24">
    <path d="M19.99 4c-1.1 0-2.1.89-2.96 1.74-.85.84-1.57 1.55-2.67 1.55-1.1 0-2.11-.9-2.97-1.75C10.54 4.69 9.83 4 8.73 4 7.62 4 6.6 4.89 5.74 5.75 4.89 6.59 4.17 7.3 3.07 7.3H2v2h1.07c1.1 0 2.11-.9 2.97-1.75.86-.85 1.57-1.56 2.68-1.56 1.1 0 2.12.89 2.97 1.74.85.84 1.57 1.55 2.67 1.55 1.1 0 2.11-.9 2.97-1.75.86-.85 1.57-1.56 2.68-1.56h2.02V4h-2.04zM19.99 10c-1.1 0-2.1.89-2.96 1.74-.85.84-1.57 1.55-2.67 1.55-1.1 0-2.11-.9-2.97-1.75C10.54 10.69 9.83 10 8.73 10 7.62 10 6.6 10.89 5.74 11.75 4.89 12.59 4.17 13.3 3.07 13.3H2v2h1.07c1.1 0 2.11-.9 2.97-1.75.86-.85 1.57-1.56 2.68-1.56 1.1 0 2.12.89 2.97 1.74.85.84 1.57 1.55 2.67 1.55 1.1 0 2.11-.9 2.97-1.75.86-.85 1.57-1.56 2.68-1.56h2.02v-2h-2.04zM19.99 16c-1.1 0-2.1.89-2.96 1.74-.85.84-1.57 1.55-2.67 1.55-1.1 0-2.11-.9-2.97-1.75C10.54 16.69 9.83 16 8.73 16 7.62 16 6.6 16.89 5.74 17.75 4.89 18.59 4.17 19.3 3.07 19.3H2v2h1.07c1.1 0 2.11-.9 2.97-1.75.86-.85 1.57-1.56 2.68-1.56 1.1 0 2.12.89 2.97 1.74.85.84 1.57 1.55 2.67 1.55 1.1 0 2.11-.9 2.97-1.75.86-.85 1.57-1.56 2.68-1.56h2.02v-2h-2.04z"/>
  </symbol>

  <symbol id="icon-ac" viewBox="0 0 24 24">
    <path d="M22,11h-4.17l3.24-3.24l-1.41-1.41L15,11h-2V9l4.66-4.66l-1.41-1.41L13,6.17V2h-2v4.17L7.76,2.93L6.34,4.34L11,9v2H9L4.34,6.34L2.93,7.76L6.17,11H2v2h4.17l-3.24,3.24l1.41,1.41L9,13h2v2l-4.66,4.66l1.41,1.41L11,17.83V22h2v-4.17l3.24,3.24l1.42-1.41L13,15v-2h2l4.66,4.66l1.41-1.41L17.83,13H22V11z"/>
  </symbol>

  <symbol id="icon-wakeup" viewBox="0 0 24 24">
    <path d="M22,5.72l-4.6-3.86l-1.29,1.53l4.6,3.86L22,5.72z M7.88,3.39L6.6,1.86L2,5.71l1.29,1.53L7.88,3.39z M12.5,8H11v6l4.75,2.85 l0.75-1.23l-4-2.37V8z M12,4c-4.97,0-9,4.03-9,9s4.03,9,9,9s9-4.03,9-9S16.97,4,12,4z M12,20c-3.86,0-7-3.14-7-7s3.14-7,7-7s7,3.14,7,7 S15.86,20,12,20z"/>
  </symbol>

  <symbol id="icon-shuttle" viewBox="0 0 24 24">
    <path d="M18.92 6.01C18.72 5.42 18.16 5 17.5 5h-11c-.66 0-1.22.42-1.42 1.01L3 12v8c0 .55.45 1 1 1h1c.55 0 1-.45 1-1v-1h12v1c0 .55.45 1 1 1h1c.55 0 1-.45 1-1v-8l-2.08-5.99zM6.5 16c-.83 0-1.5-.67-1.5-1.5S5.67 13 6.5 13s1.5.67 1.5 1.5S7.33 16 6.5 16zm11 0c-.83 0-1.5-.67-1.5-1.5S16.67 13 17.5 13s1.5.67 1.5 1.5S18.33 16 17.5 16zM5 11l1.5-4.5h11L19 11H5z"/>
  </symbol>

</svg>